<svg xmlns="http://www.w3.org/2000/svg" width="51.068" height="56.777" viewBox="0 0 51.068 56.777">
  <g id="Group_22" data-name="Group 22" transform="translate(-0.079)">
    <path id="Path_3" data-name="Path 3" d="M44.233,37.643l-4.891-9.03v-9.4a17.024,17.024,0,1,0-34.047,0v9.4L.4,37.642a2.688,2.688,0,0,0,2.363,3.968H12.5c-.027.3-.041.594-.041.9a9.856,9.856,0,0,0,19.712,0c0-.3-.014-.6-.041-.9H41.87a2.688,2.688,0,0,0,2.363-3.968ZM28.59,42.507a6.272,6.272,0,1,1-12.479-.9H28.525A6.285,6.285,0,0,1,28.59,42.507ZM4.271,38.027l4.607-8.506V19.211a13.44,13.44,0,0,1,26.88,0v10.31l4.607,8.506Z" transform="translate(0 4.415)" fill="#9e9e9e"/>
    <circle id="Ellipse_5" data-name="Ellipse 5" cx="7.545" cy="7.545" r="7.545" transform="translate(36.057)" fill="#fa3131"/>
  </g>
</svg>
